<svg width="96" height="96" viewBox="0 0 96 96" fill="none" xmlns="http://www.w3.org/2000/svg">
<rect x="0.5" y="0.5" width="95" height="95" rx="23.5" fill="white" stroke="#D1D1D1"/>
<path d="M29.7419 70L36.9286 26H42.9175L35.7308 70H29.7419ZM10 58.6563L11.0053 52.6406H44.7141L43.7089 58.6563H10ZM14.3419 70L21.5286 26H27.5175L20.3308 70H14.3419ZM12.5453 43.3594L13.5292 37.3438H47.238L46.2541 43.3594H12.5453Z" fill="black"/>
<path d="M68.5039 70L75.6906 26H81.6794L74.4928 70H68.5039ZM48.762 58.6563L49.7673 52.6406H83.4761L82.4708 58.6563H48.762ZM53.1039 70L60.2906 26H66.2795L59.0928 70H53.1039ZM51.3073 43.3594L52.2911 37.3438H86L85.0161 43.3594H51.3073Z" fill="black"/>
</svg>
